<mxfile host="app.diagrams.net" agent="Mozilla/5.0 (Windows NT 10.0; Win64; x64) AppleWebKit/537.36 (KHTML, like Gecko) Chrome/138.0.0.0 Safari/537.36" version="28.1.0">
  <diagram name="Page-1" id="qu99jnDkaI3B2HLFX7Ys">
    <mxGraphModel grid="1" page="1" gridSize="10" guides="1" tooltips="1" connect="1" arrows="1" fold="1" pageScale="1" pageWidth="827" pageHeight="1169" math="0" shadow="0">
      <root>
        <mxCell id="0" />
        <mxCell id="1" parent="0" />
        <mxCell id="5yiR7R9ecF5_I8I-uR6O-1" value="ทบทวนสัญลักษณ์" style="swimlane;fontFamily=Sarabun;fontSource=https://fonts.googleapis.com/css?family=Sarabun;" vertex="1" parent="1">
          <mxGeometry x="90" y="40" width="640" height="290" as="geometry" />
        </mxCell>
        <mxCell id="5yiR7R9ecF5_I8I-uR6O-2" value="&lt;font data-font-src=&quot;https://fonts.googleapis.com/css?family=Sarabun&quot; face=&quot;Sarabun&quot;&gt;เริ่มต้น&lt;/font&gt;" style="ellipse;whiteSpace=wrap;html=1;" vertex="1" parent="5yiR7R9ecF5_I8I-uR6O-1">
          <mxGeometry x="20" y="40" width="130" height="30" as="geometry" />
        </mxCell>
        <mxCell id="5yiR7R9ecF5_I8I-uR6O-3" value="" style="endArrow=classic;html=1;rounded=0;" edge="1" parent="5yiR7R9ecF5_I8I-uR6O-1">
          <mxGeometry width="50" height="50" relative="1" as="geometry">
            <mxPoint x="84.5" y="70" as="sourcePoint" />
            <mxPoint x="84.5" y="120" as="targetPoint" />
          </mxGeometry>
        </mxCell>
        <mxCell id="5yiR7R9ecF5_I8I-uR6O-4" value="&lt;font face=&quot;Sarabun&quot;&gt;สิ้นสุด&lt;/font&gt;" style="ellipse;whiteSpace=wrap;html=1;" vertex="1" parent="5yiR7R9ecF5_I8I-uR6O-1">
          <mxGeometry x="150" y="90" width="130" height="30" as="geometry" />
        </mxCell>
        <mxCell id="5yiR7R9ecF5_I8I-uR6O-5" value="" style="endArrow=classic;html=1;rounded=0;" edge="1" parent="5yiR7R9ecF5_I8I-uR6O-1">
          <mxGeometry width="50" height="50" relative="1" as="geometry">
            <mxPoint x="214.5" y="40" as="sourcePoint" />
            <mxPoint x="214.5" y="90" as="targetPoint" />
          </mxGeometry>
        </mxCell>
        <mxCell id="5yiR7R9ecF5_I8I-uR6O-6" value="กระบวนการ" style="rounded=0;whiteSpace=wrap;html=1;fontFamily=Sarabun;fontSource=https://fonts.googleapis.com/css?family=Sarabun;" vertex="1" parent="5yiR7R9ecF5_I8I-uR6O-1">
          <mxGeometry x="320" y="70" width="120" height="30" as="geometry" />
        </mxCell>
        <mxCell id="5yiR7R9ecF5_I8I-uR6O-7" value="" style="endArrow=classic;html=1;rounded=0;" edge="1" parent="5yiR7R9ecF5_I8I-uR6O-1">
          <mxGeometry width="50" height="50" relative="1" as="geometry">
            <mxPoint x="379" y="40" as="sourcePoint" />
            <mxPoint x="379.5" y="70" as="targetPoint" />
          </mxGeometry>
        </mxCell>
        <mxCell id="5yiR7R9ecF5_I8I-uR6O-8" value="" style="endArrow=classic;html=1;rounded=0;" edge="1" parent="5yiR7R9ecF5_I8I-uR6O-1">
          <mxGeometry width="50" height="50" relative="1" as="geometry">
            <mxPoint x="379.75" y="100" as="sourcePoint" />
            <mxPoint x="380.25" y="130" as="targetPoint" />
          </mxGeometry>
        </mxCell>
        <mxCell id="5yiR7R9ecF5_I8I-uR6O-9" value="ประโยคเงื่อนไข" style="rhombus;whiteSpace=wrap;html=1;fontFamily=Sarabun;fontSource=https://fonts.googleapis.com/css?family=Sarabun;" vertex="1" parent="5yiR7R9ecF5_I8I-uR6O-1">
          <mxGeometry x="490" y="60" width="100" height="60" as="geometry" />
        </mxCell>
        <mxCell id="5yiR7R9ecF5_I8I-uR6O-10" value="" style="endArrow=classic;html=1;rounded=0;" edge="1" parent="5yiR7R9ecF5_I8I-uR6O-1">
          <mxGeometry width="50" height="50" relative="1" as="geometry">
            <mxPoint x="539.71" y="30" as="sourcePoint" />
            <mxPoint x="540.21" y="60" as="targetPoint" />
          </mxGeometry>
        </mxCell>
        <mxCell id="5yiR7R9ecF5_I8I-uR6O-11" value="" style="endArrow=classic;html=1;rounded=0;" edge="1" parent="5yiR7R9ecF5_I8I-uR6O-1">
          <mxGeometry width="50" height="50" relative="1" as="geometry">
            <mxPoint x="539.71" y="120" as="sourcePoint" />
            <mxPoint x="540" y="175" as="targetPoint" />
          </mxGeometry>
        </mxCell>
        <mxCell id="5yiR7R9ecF5_I8I-uR6O-12" value="จริง" style="edgeLabel;html=1;align=center;verticalAlign=middle;resizable=0;points=[];fontFamily=Sarabun;fontSource=https://fonts.googleapis.com/css?family=Sarabun;" connectable="0" vertex="1" parent="5yiR7R9ecF5_I8I-uR6O-11">
          <mxGeometry x="-0.4142" y="-1" relative="1" as="geometry">
            <mxPoint as="offset" />
          </mxGeometry>
        </mxCell>
        <mxCell id="5yiR7R9ecF5_I8I-uR6O-13" value="" style="endArrow=classic;html=1;rounded=0;exitX=1;exitY=0.5;exitDx=0;exitDy=0;" edge="1" parent="5yiR7R9ecF5_I8I-uR6O-1" source="5yiR7R9ecF5_I8I-uR6O-9">
          <mxGeometry width="50" height="50" relative="1" as="geometry">
            <mxPoint x="620" y="95" as="sourcePoint" />
            <mxPoint x="610" y="175" as="targetPoint" />
            <Array as="points">
              <mxPoint x="610" y="90" />
            </Array>
          </mxGeometry>
        </mxCell>
        <mxCell id="5yiR7R9ecF5_I8I-uR6O-14" value="&lt;font data-font-src=&quot;https://fonts.googleapis.com/css?family=Sarabun&quot; face=&quot;Sarabun&quot;&gt;เท็จ&lt;/font&gt;" style="edgeLabel;html=1;align=center;verticalAlign=middle;resizable=0;points=[];" connectable="0" vertex="1" parent="5yiR7R9ecF5_I8I-uR6O-13">
          <mxGeometry x="-0.0019" y="-2" relative="1" as="geometry">
            <mxPoint as="offset" />
          </mxGeometry>
        </mxCell>
        <mxCell id="5yiR7R9ecF5_I8I-uR6O-15" value="&lt;font data-font-src=&quot;https://fonts.googleapis.com/css?family=Sarabun&quot; face=&quot;Sarabun&quot;&gt;ฟังก์ชัน/โมดูล&lt;/font&gt;" style="shape=process;whiteSpace=wrap;html=1;backgroundOutline=1;" vertex="1" parent="5yiR7R9ecF5_I8I-uR6O-1">
          <mxGeometry x="25" y="180" width="120" height="30" as="geometry" />
        </mxCell>
        <mxCell id="5yiR7R9ecF5_I8I-uR6O-16" value="" style="endArrow=classic;html=1;rounded=0;" edge="1" parent="5yiR7R9ecF5_I8I-uR6O-1">
          <mxGeometry width="50" height="50" relative="1" as="geometry">
            <mxPoint x="84.70999999999998" y="150" as="sourcePoint" />
            <mxPoint x="85.20999999999998" y="180" as="targetPoint" />
          </mxGeometry>
        </mxCell>
        <mxCell id="5yiR7R9ecF5_I8I-uR6O-17" value="" style="endArrow=classic;html=1;rounded=0;" edge="1" parent="5yiR7R9ecF5_I8I-uR6O-1">
          <mxGeometry width="50" height="50" relative="1" as="geometry">
            <mxPoint x="84.70999999999998" y="210" as="sourcePoint" />
            <mxPoint x="85.20999999999998" y="240" as="targetPoint" />
          </mxGeometry>
        </mxCell>
        <mxCell id="5yiR7R9ecF5_I8I-uR6O-18" value="" style="strokeWidth=2;html=1;shape=mxgraph.flowchart.start_2;whiteSpace=wrap;" vertex="1" parent="5yiR7R9ecF5_I8I-uR6O-1">
          <mxGeometry x="205" y="185" width="20" height="20" as="geometry" />
        </mxCell>
        <mxCell id="5yiR7R9ecF5_I8I-uR6O-19" value="" style="endArrow=classic;html=1;rounded=0;" edge="1" parent="5yiR7R9ecF5_I8I-uR6O-1">
          <mxGeometry width="50" height="50" relative="1" as="geometry">
            <mxPoint x="214.70999999999998" y="155" as="sourcePoint" />
            <mxPoint x="215.20999999999998" y="185" as="targetPoint" />
          </mxGeometry>
        </mxCell>
        <mxCell id="5yiR7R9ecF5_I8I-uR6O-20" value="" style="endArrow=classic;html=1;rounded=0;entryX=0;entryY=0.5;entryDx=0;entryDy=0;entryPerimeter=0;" edge="1" parent="5yiR7R9ecF5_I8I-uR6O-1" target="5yiR7R9ecF5_I8I-uR6O-18">
          <mxGeometry width="50" height="50" relative="1" as="geometry">
            <mxPoint x="189.99999999999997" y="155" as="sourcePoint" />
            <mxPoint x="190.49999999999997" y="185" as="targetPoint" />
            <Array as="points">
              <mxPoint x="190" y="180" />
            </Array>
          </mxGeometry>
        </mxCell>
        <mxCell id="5yiR7R9ecF5_I8I-uR6O-21" value="" style="endArrow=classic;html=1;rounded=0;entryX=1;entryY=0.5;entryDx=0;entryDy=0;entryPerimeter=0;" edge="1" parent="5yiR7R9ecF5_I8I-uR6O-1" target="5yiR7R9ecF5_I8I-uR6O-18">
          <mxGeometry width="50" height="50" relative="1" as="geometry">
            <mxPoint x="239.99999999999997" y="155" as="sourcePoint" />
            <mxPoint x="240.49999999999997" y="185" as="targetPoint" />
            <Array as="points">
              <mxPoint x="240" y="180" />
            </Array>
          </mxGeometry>
        </mxCell>
        <mxCell id="5yiR7R9ecF5_I8I-uR6O-22" value="" style="endArrow=classic;html=1;rounded=0;" edge="1" parent="5yiR7R9ecF5_I8I-uR6O-1">
          <mxGeometry width="50" height="50" relative="1" as="geometry">
            <mxPoint x="214.70999999999998" y="205" as="sourcePoint" />
            <mxPoint x="215.20999999999998" y="235" as="targetPoint" />
          </mxGeometry>
        </mxCell>
        <mxCell id="5yiR7R9ecF5_I8I-uR6O-23" value="&lt;font data-font-src=&quot;https://fonts.googleapis.com/css?family=Sarabun&quot; face=&quot;Sarabun&quot;&gt;ตัวเชื่อม&lt;/font&gt;" style="text;html=1;align=center;verticalAlign=middle;resizable=0;points=[];autosize=1;strokeColor=none;fillColor=none;" vertex="1" parent="5yiR7R9ecF5_I8I-uR6O-1">
          <mxGeometry x="220" y="190" width="60" height="30" as="geometry" />
        </mxCell>
        <mxCell id="5yiR7R9ecF5_I8I-uR6O-24" value="" style="endArrow=classic;html=1;rounded=0;" edge="1" parent="5yiR7R9ecF5_I8I-uR6O-1">
          <mxGeometry width="50" height="50" relative="1" as="geometry">
            <mxPoint x="353.71" y="165" as="sourcePoint" />
            <mxPoint x="354.21" y="195" as="targetPoint" />
          </mxGeometry>
        </mxCell>
        <mxCell id="5yiR7R9ecF5_I8I-uR6O-25" value="" style="verticalLabelPosition=bottom;verticalAlign=top;html=1;shape=offPageConnector;rounded=0;size=0.5;" vertex="1" parent="5yiR7R9ecF5_I8I-uR6O-1">
          <mxGeometry x="339" y="195" width="30" height="30" as="geometry" />
        </mxCell>
        <mxCell id="5yiR7R9ecF5_I8I-uR6O-26" value="" style="endArrow=classic;html=1;rounded=0;" edge="1" parent="5yiR7R9ecF5_I8I-uR6O-1">
          <mxGeometry width="50" height="50" relative="1" as="geometry">
            <mxPoint x="405.71" y="195" as="sourcePoint" />
            <mxPoint x="406.21" y="225" as="targetPoint" />
          </mxGeometry>
        </mxCell>
        <mxCell id="5yiR7R9ecF5_I8I-uR6O-27" value="" style="verticalLabelPosition=bottom;verticalAlign=top;html=1;shape=offPageConnector;rounded=0;size=0.5;" vertex="1" parent="5yiR7R9ecF5_I8I-uR6O-1">
          <mxGeometry x="391" y="165" width="30" height="30" as="geometry" />
        </mxCell>
        <mxCell id="5yiR7R9ecF5_I8I-uR6O-28" value="หน้าต่อไป" style="text;html=1;align=center;verticalAlign=middle;resizable=0;points=[];autosize=1;strokeColor=none;fillColor=none;fontFamily=Sarabun;fontSource=https://fonts.googleapis.com/css?family=Sarabun;" vertex="1" parent="5yiR7R9ecF5_I8I-uR6O-1">
          <mxGeometry x="345" y="220" width="70" height="30" as="geometry" />
        </mxCell>
        <mxCell id="5yiR7R9ecF5_I8I-uR6O-29" value="ก" style="text;html=1;align=center;verticalAlign=middle;resizable=0;points=[];autosize=1;strokeColor=none;fillColor=none;fontFamily=Sarabun;fontSource=https://fonts.googleapis.com/css?family=Sarabun;" vertex="1" parent="5yiR7R9ecF5_I8I-uR6O-1">
          <mxGeometry x="339" y="190" width="30" height="30" as="geometry" />
        </mxCell>
        <mxCell id="5yiR7R9ecF5_I8I-uR6O-30" value="ก" style="text;html=1;align=center;verticalAlign=middle;resizable=0;points=[];autosize=1;strokeColor=none;fillColor=none;fontFamily=Sarabun;fontSource=https://fonts.googleapis.com/css?family=Sarabun;" vertex="1" parent="5yiR7R9ecF5_I8I-uR6O-1">
          <mxGeometry x="391" y="160" width="30" height="30" as="geometry" />
        </mxCell>
        <mxCell id="5yiR7R9ecF5_I8I-uR6O-31" value="แสดงผล/รับค่า" style="shape=parallelogram;perimeter=parallelogramPerimeter;whiteSpace=wrap;html=1;fixedSize=1;fontFamily=Sarabun;fontSource=https://fonts.googleapis.com/css?family=Sarabun;" vertex="1" parent="5yiR7R9ecF5_I8I-uR6O-1">
          <mxGeometry x="450" y="210" width="120" height="30" as="geometry" />
        </mxCell>
        <mxCell id="5yiR7R9ecF5_I8I-uR6O-32" value="" style="endArrow=classic;html=1;rounded=0;" edge="1" parent="5yiR7R9ecF5_I8I-uR6O-1">
          <mxGeometry width="50" height="50" relative="1" as="geometry">
            <mxPoint x="509.71" y="180" as="sourcePoint" />
            <mxPoint x="510.21" y="210" as="targetPoint" />
          </mxGeometry>
        </mxCell>
        <mxCell id="5yiR7R9ecF5_I8I-uR6O-33" value="" style="endArrow=classic;html=1;rounded=0;" edge="1" parent="5yiR7R9ecF5_I8I-uR6O-1">
          <mxGeometry width="50" height="50" relative="1" as="geometry">
            <mxPoint x="509.71" y="240" as="sourcePoint" />
            <mxPoint x="510.21" y="270" as="targetPoint" />
          </mxGeometry>
        </mxCell>
        <mxCell id="5yiR7R9ecF5_I8I-uR6O-34" value="แก้ไขโจทย์ปัญหา" style="swimlane;fontFamily=Sarabun;fontSource=https://fonts.googleapis.com/css?family=Sarabun;" vertex="1" parent="1">
          <mxGeometry x="94" y="350" width="640" height="1280" as="geometry" />
        </mxCell>
        <mxCell id="5yiR7R9ecF5_I8I-uR6O-84" style="edgeStyle=orthogonalEdgeStyle;rounded=0;orthogonalLoop=1;jettySize=auto;html=1;" edge="1" parent="5yiR7R9ecF5_I8I-uR6O-34" source="5yiR7R9ecF5_I8I-uR6O-37" target="5yiR7R9ecF5_I8I-uR6O-82">
          <mxGeometry relative="1" as="geometry" />
        </mxCell>
        <mxCell id="5yiR7R9ecF5_I8I-uR6O-37" value="&lt;font data-font-src=&quot;https://fonts.googleapis.com/css?family=Sarabun&quot; face=&quot;Sarabun&quot;&gt;เริ่มต้น&lt;/font&gt;" style="ellipse;whiteSpace=wrap;html=1;" vertex="1" parent="5yiR7R9ecF5_I8I-uR6O-34">
          <mxGeometry x="255" y="50" width="130" height="30" as="geometry" />
        </mxCell>
        <mxCell id="5yiR7R9ecF5_I8I-uR6O-122" style="edgeStyle=orthogonalEdgeStyle;rounded=0;orthogonalLoop=1;jettySize=auto;html=1;entryX=0;entryY=0.5;entryDx=0;entryDy=0;" edge="1" parent="5yiR7R9ecF5_I8I-uR6O-34" source="5yiR7R9ecF5_I8I-uR6O-82" target="5yiR7R9ecF5_I8I-uR6O-118">
          <mxGeometry relative="1" as="geometry">
            <Array as="points">
              <mxPoint x="166" y="150" />
              <mxPoint x="166" y="1110" />
            </Array>
          </mxGeometry>
        </mxCell>
        <mxCell id="5yiR7R9ecF5_I8I-uR6O-123" value="เท็จ" style="edgeLabel;html=1;align=center;verticalAlign=middle;resizable=0;points=[];" connectable="0" vertex="1" parent="5yiR7R9ecF5_I8I-uR6O-122">
          <mxGeometry x="-0.9174" relative="1" as="geometry">
            <mxPoint as="offset" />
          </mxGeometry>
        </mxCell>
        <mxCell id="5yiR7R9ecF5_I8I-uR6O-82" value="คุณต้องการเล่นเกมนี้หรือไม่" style="rhombus;whiteSpace=wrap;html=1;fontFamily=Sarabun;fontSource=https://fonts.googleapis.com/css?family=Sarabun;" vertex="1" parent="5yiR7R9ecF5_I8I-uR6O-34">
          <mxGeometry x="250" y="110" width="140" height="80" as="geometry" />
        </mxCell>
        <mxCell id="5yiR7R9ecF5_I8I-uR6O-110" value="" style="strokeWidth=2;html=1;shape=mxgraph.flowchart.start_2;whiteSpace=wrap;" vertex="1" parent="5yiR7R9ecF5_I8I-uR6O-34">
          <mxGeometry x="305" y="220" width="30" height="30" as="geometry" />
        </mxCell>
        <mxCell id="5yiR7R9ecF5_I8I-uR6O-111" style="edgeStyle=orthogonalEdgeStyle;rounded=0;orthogonalLoop=1;jettySize=auto;html=1;entryX=0.5;entryY=0;entryDx=0;entryDy=0;entryPerimeter=0;" edge="1" parent="5yiR7R9ecF5_I8I-uR6O-34" source="5yiR7R9ecF5_I8I-uR6O-82" target="5yiR7R9ecF5_I8I-uR6O-110">
          <mxGeometry relative="1" as="geometry" />
        </mxCell>
        <mxCell id="5yiR7R9ecF5_I8I-uR6O-124" value="จริง" style="edgeLabel;html=1;align=center;verticalAlign=middle;resizable=0;points=[];" connectable="0" vertex="1" parent="5yiR7R9ecF5_I8I-uR6O-111">
          <mxGeometry x="-0.64" relative="1" as="geometry">
            <mxPoint as="offset" />
          </mxGeometry>
        </mxCell>
        <mxCell id="5yiR7R9ecF5_I8I-uR6O-126" style="edgeStyle=orthogonalEdgeStyle;rounded=0;orthogonalLoop=1;jettySize=auto;html=1;entryX=0.5;entryY=0;entryDx=0;entryDy=0;" edge="1" parent="5yiR7R9ecF5_I8I-uR6O-34" source="5yiR7R9ecF5_I8I-uR6O-118" target="5yiR7R9ecF5_I8I-uR6O-125">
          <mxGeometry relative="1" as="geometry" />
        </mxCell>
        <mxCell id="5yiR7R9ecF5_I8I-uR6O-118" value="ให้แสดงคำว่า&amp;nbsp;&lt;div&gt;See you again.&lt;/div&gt;" style="rounded=0;whiteSpace=wrap;html=1;fontFamily=Sarabun;fontSource=https://fonts.googleapis.com/css?family=Sarabun;" vertex="1" parent="5yiR7R9ecF5_I8I-uR6O-34">
          <mxGeometry x="260" y="1090" width="120" height="40" as="geometry" />
        </mxCell>
        <mxCell id="5yiR7R9ecF5_I8I-uR6O-125" value="&lt;font face=&quot;Sarabun&quot;&gt;สิ้นสุด&lt;/font&gt;" style="ellipse;whiteSpace=wrap;html=1;" vertex="1" parent="5yiR7R9ecF5_I8I-uR6O-34">
          <mxGeometry x="255" y="1220" width="130" height="30" as="geometry" />
        </mxCell>
        <mxCell id="5yiR7R9ecF5_I8I-uR6O-91" style="edgeStyle=orthogonalEdgeStyle;rounded=0;orthogonalLoop=1;jettySize=auto;html=1;entryX=0.5;entryY=0;entryDx=0;entryDy=0;" edge="1" parent="1" source="5yiR7R9ecF5_I8I-uR6O-70" target="5yiR7R9ecF5_I8I-uR6O-86">
          <mxGeometry relative="1" as="geometry" />
        </mxCell>
        <mxCell id="5yiR7R9ecF5_I8I-uR6O-70" value="แสดงค่าคะแนน 100 คะแนน" style="rounded=0;whiteSpace=wrap;html=1;fontFamily=Sarabun;fontSource=https://fonts.googleapis.com/css?family=Sarabun;" vertex="1" parent="1">
          <mxGeometry x="354" y="658" width="120" height="30" as="geometry" />
        </mxCell>
        <mxCell id="5yiR7R9ecF5_I8I-uR6O-86" value="ให้ทายเลข 1 - 100" style="rounded=0;whiteSpace=wrap;html=1;fontFamily=Sarabun;fontSource=https://fonts.googleapis.com/css?family=Sarabun;" vertex="1" parent="1">
          <mxGeometry x="354" y="743" width="120" height="30" as="geometry" />
        </mxCell>
        <mxCell id="5yiR7R9ecF5_I8I-uR6O-94" style="edgeStyle=orthogonalEdgeStyle;rounded=0;orthogonalLoop=1;jettySize=auto;html=1;" edge="1" parent="1" source="5yiR7R9ecF5_I8I-uR6O-87" target="5yiR7R9ecF5_I8I-uR6O-93">
          <mxGeometry relative="1" as="geometry" />
        </mxCell>
        <mxCell id="5yiR7R9ecF5_I8I-uR6O-87" value="" style="strokeWidth=2;html=1;shape=mxgraph.flowchart.start_2;whiteSpace=wrap;" vertex="1" parent="1">
          <mxGeometry x="399" y="823" width="30" height="30" as="geometry" />
        </mxCell>
        <mxCell id="5yiR7R9ecF5_I8I-uR6O-92" style="edgeStyle=orthogonalEdgeStyle;rounded=0;orthogonalLoop=1;jettySize=auto;html=1;entryX=0.5;entryY=0;entryDx=0;entryDy=0;entryPerimeter=0;" edge="1" parent="1" source="5yiR7R9ecF5_I8I-uR6O-86" target="5yiR7R9ecF5_I8I-uR6O-87">
          <mxGeometry relative="1" as="geometry" />
        </mxCell>
        <mxCell id="5yiR7R9ecF5_I8I-uR6O-96" style="edgeStyle=orthogonalEdgeStyle;rounded=0;orthogonalLoop=1;jettySize=auto;html=1;entryX=0.5;entryY=0;entryDx=0;entryDy=0;" edge="1" parent="1" source="5yiR7R9ecF5_I8I-uR6O-93" target="5yiR7R9ecF5_I8I-uR6O-95">
          <mxGeometry relative="1" as="geometry" />
        </mxCell>
        <mxCell id="5yiR7R9ecF5_I8I-uR6O-93" value="ทายเลข" style="rounded=0;whiteSpace=wrap;html=1;fontFamily=Sarabun;fontSource=https://fonts.googleapis.com/css?family=Sarabun;" vertex="1" parent="1">
          <mxGeometry x="354" y="883" width="120" height="30" as="geometry" />
        </mxCell>
        <mxCell id="5yiR7R9ecF5_I8I-uR6O-99" style="edgeStyle=orthogonalEdgeStyle;rounded=0;orthogonalLoop=1;jettySize=auto;html=1;entryX=0.5;entryY=0;entryDx=0;entryDy=0;" edge="1" parent="1" source="5yiR7R9ecF5_I8I-uR6O-95" target="5yiR7R9ecF5_I8I-uR6O-97">
          <mxGeometry relative="1" as="geometry" />
        </mxCell>
        <mxCell id="5yiR7R9ecF5_I8I-uR6O-121" value="เท็จ" style="edgeLabel;html=1;align=center;verticalAlign=middle;resizable=0;points=[];" connectable="0" vertex="1" parent="5yiR7R9ecF5_I8I-uR6O-99">
          <mxGeometry x="0.0327" y="1" relative="1" as="geometry">
            <mxPoint as="offset" />
          </mxGeometry>
        </mxCell>
        <mxCell id="5yiR7R9ecF5_I8I-uR6O-116" style="edgeStyle=orthogonalEdgeStyle;rounded=0;orthogonalLoop=1;jettySize=auto;html=1;entryX=1;entryY=0.5;entryDx=0;entryDy=0;" edge="1" parent="1" source="5yiR7R9ecF5_I8I-uR6O-95" target="5yiR7R9ecF5_I8I-uR6O-104">
          <mxGeometry relative="1" as="geometry">
            <Array as="points">
              <mxPoint x="530" y="978" />
              <mxPoint x="530" y="1268" />
            </Array>
          </mxGeometry>
        </mxCell>
        <mxCell id="5yiR7R9ecF5_I8I-uR6O-117" value="จริง" style="edgeLabel;html=1;align=center;verticalAlign=middle;resizable=0;points=[];" connectable="0" vertex="1" parent="5yiR7R9ecF5_I8I-uR6O-116">
          <mxGeometry x="-0.9301" y="1" relative="1" as="geometry">
            <mxPoint as="offset" />
          </mxGeometry>
        </mxCell>
        <mxCell id="5yiR7R9ecF5_I8I-uR6O-95" value="จำนวนเลขถุกต้องใหม" style="rhombus;whiteSpace=wrap;html=1;fontFamily=Sarabun;fontSource=https://fonts.googleapis.com/css?family=Sarabun;" vertex="1" parent="1">
          <mxGeometry x="344" y="943" width="140" height="70" as="geometry" />
        </mxCell>
        <mxCell id="5yiR7R9ecF5_I8I-uR6O-100" style="edgeStyle=orthogonalEdgeStyle;rounded=0;orthogonalLoop=1;jettySize=auto;html=1;entryX=0.5;entryY=0;entryDx=0;entryDy=0;" edge="1" parent="1" source="5yiR7R9ecF5_I8I-uR6O-97" target="5yiR7R9ecF5_I8I-uR6O-98">
          <mxGeometry relative="1" as="geometry" />
        </mxCell>
        <mxCell id="5yiR7R9ecF5_I8I-uR6O-97" value="บอกว่ามีจำนวนเลขมากกว่าหรือน้อยกว่า" style="rounded=0;whiteSpace=wrap;html=1;fontFamily=Sarabun;fontSource=https://fonts.googleapis.com/css?family=Sarabun;" vertex="1" parent="1">
          <mxGeometry x="354" y="1043" width="120" height="40" as="geometry" />
        </mxCell>
        <mxCell id="5yiR7R9ecF5_I8I-uR6O-102" style="edgeStyle=orthogonalEdgeStyle;rounded=0;orthogonalLoop=1;jettySize=auto;html=1;entryX=0.5;entryY=0;entryDx=0;entryDy=0;" edge="1" parent="1" source="5yiR7R9ecF5_I8I-uR6O-98" target="5yiR7R9ecF5_I8I-uR6O-101">
          <mxGeometry relative="1" as="geometry" />
        </mxCell>
        <mxCell id="5yiR7R9ecF5_I8I-uR6O-98" value="ลบคะแนน 10" style="rounded=0;whiteSpace=wrap;html=1;fontFamily=Sarabun;fontSource=https://fonts.googleapis.com/css?family=Sarabun;" vertex="1" parent="1">
          <mxGeometry x="354" y="1113" width="120" height="30" as="geometry" />
        </mxCell>
        <mxCell id="5yiR7R9ecF5_I8I-uR6O-101" value="แสดงคะแนน" style="rounded=0;whiteSpace=wrap;html=1;fontFamily=Sarabun;fontSource=https://fonts.googleapis.com/css?family=Sarabun;" vertex="1" parent="1">
          <mxGeometry x="354" y="1183" width="120" height="30" as="geometry" />
        </mxCell>
        <mxCell id="5yiR7R9ecF5_I8I-uR6O-103" style="edgeStyle=orthogonalEdgeStyle;rounded=0;orthogonalLoop=1;jettySize=auto;html=1;entryX=0;entryY=0.5;entryDx=0;entryDy=0;entryPerimeter=0;" edge="1" parent="1" source="5yiR7R9ecF5_I8I-uR6O-101" target="5yiR7R9ecF5_I8I-uR6O-87">
          <mxGeometry relative="1" as="geometry">
            <Array as="points">
              <mxPoint x="330" y="1198" />
              <mxPoint x="330" y="838" />
            </Array>
          </mxGeometry>
        </mxCell>
        <mxCell id="5yiR7R9ecF5_I8I-uR6O-108" style="edgeStyle=orthogonalEdgeStyle;rounded=0;orthogonalLoop=1;jettySize=auto;html=1;entryX=0.5;entryY=0;entryDx=0;entryDy=0;" edge="1" parent="1" source="5yiR7R9ecF5_I8I-uR6O-104" target="5yiR7R9ecF5_I8I-uR6O-106">
          <mxGeometry relative="1" as="geometry" />
        </mxCell>
        <mxCell id="5yiR7R9ecF5_I8I-uR6O-104" value="แสดงว่าทายถูกต้องแล้วทำการแสดงคะแนนที่เหลือ" style="rounded=0;whiteSpace=wrap;html=1;fontFamily=Sarabun;fontSource=https://fonts.googleapis.com/css?family=Sarabun;" vertex="1" parent="1">
          <mxGeometry x="334" y="1253" width="160" height="30" as="geometry" />
        </mxCell>
        <mxCell id="5yiR7R9ecF5_I8I-uR6O-119" style="edgeStyle=orthogonalEdgeStyle;rounded=0;orthogonalLoop=1;jettySize=auto;html=1;entryX=0.5;entryY=0;entryDx=0;entryDy=0;" edge="1" parent="1" source="5yiR7R9ecF5_I8I-uR6O-106" target="5yiR7R9ecF5_I8I-uR6O-118">
          <mxGeometry relative="1" as="geometry" />
        </mxCell>
        <mxCell id="5yiR7R9ecF5_I8I-uR6O-120" value="เท็จ" style="edgeLabel;html=1;align=center;verticalAlign=middle;resizable=0;points=[];" connectable="0" vertex="1" parent="5yiR7R9ecF5_I8I-uR6O-119">
          <mxGeometry x="-0.3827" y="-2" relative="1" as="geometry">
            <mxPoint as="offset" />
          </mxGeometry>
        </mxCell>
        <mxCell id="5yiR7R9ecF5_I8I-uR6O-106" value="คุณต้องการเล่นเกมนี้หรือไม่" style="rhombus;whiteSpace=wrap;html=1;fontFamily=Sarabun;fontSource=https://fonts.googleapis.com/css?family=Sarabun;" vertex="1" parent="1">
          <mxGeometry x="344" y="1323" width="140" height="80" as="geometry" />
        </mxCell>
        <mxCell id="5yiR7R9ecF5_I8I-uR6O-112" style="edgeStyle=orthogonalEdgeStyle;rounded=0;orthogonalLoop=1;jettySize=auto;html=1;entryX=0.5;entryY=0;entryDx=0;entryDy=0;" edge="1" parent="1" source="5yiR7R9ecF5_I8I-uR6O-110" target="5yiR7R9ecF5_I8I-uR6O-70">
          <mxGeometry relative="1" as="geometry" />
        </mxCell>
        <mxCell id="5yiR7R9ecF5_I8I-uR6O-113" style="edgeStyle=orthogonalEdgeStyle;rounded=0;orthogonalLoop=1;jettySize=auto;html=1;entryX=1;entryY=0.5;entryDx=0;entryDy=0;entryPerimeter=0;" edge="1" parent="1" source="5yiR7R9ecF5_I8I-uR6O-106" target="5yiR7R9ecF5_I8I-uR6O-110">
          <mxGeometry relative="1" as="geometry">
            <Array as="points">
              <mxPoint x="570" y="1363" />
              <mxPoint x="570" y="585" />
            </Array>
          </mxGeometry>
        </mxCell>
        <mxCell id="5yiR7R9ecF5_I8I-uR6O-115" value="จริง" style="edgeLabel;html=1;align=center;verticalAlign=middle;resizable=0;points=[];" connectable="0" vertex="1" parent="5yiR7R9ecF5_I8I-uR6O-113">
          <mxGeometry x="-0.9765" relative="1" as="geometry">
            <mxPoint as="offset" />
          </mxGeometry>
        </mxCell>
      </root>
    </mxGraphModel>
  </diagram>
</mxfile>
